<svg xmlns="http://www.w3.org/2000/svg" width="120" height="120"><defs id="SvgjsDefs1356"></defs><g id="SvgjsG1357" featurekey="root" fill="#ffffff"></g><g id="SvgjsG1358" featurekey="container1" fill="#532276" transform="matrix(0.5987127894282465,0,0,0.5987127894282465,0,0)"><defs xmlns="http://www.w3.org/2000/svg"></defs><path xmlns="http://www.w3.org/2000/svg" d="M100.215,200.43c55.259,0,100.215-44.956,100.215-100.215S155.474,0,100.215,0S0,44.956,0,100.215  S44.956,200.43,100.215,200.43z M100.215,10c49.745,0,90.215,40.47,90.215,90.215s-40.47,90.215-90.215,90.215  C50.47,190.43,10,149.959,10,100.215S50.47,10,100.215,10z"></path></g><g id="SvgjsG1359" featurekey="text1" fill="#532276" transform="matrix(4.010695176938778,0,0,4.010695176938778,32,9.786096461224435)"><path d="M2.34 20 c-1.3 0 -2.34 -1.04 -2.34 -2.34 l0 -10.28 c0 -1.28 1.04 -2.34 2.34 -2.34 l1.52 0 c1.3 0 2.34 1.06 2.34 2.34 l0 10.28 c0 1.3 -1.04 2.34 -2.34 2.34 l-1.52 0 z M4.66 6.779999999999999 c0 -0.88 -0.7 -1.58 -1.56 -1.58 s-1.56 0.7 -1.56 1.58 l0 11.48 c0 0.88 0.7 1.58 1.56 1.58 s1.56 -0.7 1.56 -1.58 l0 -11.48 z M12.24 18.28 c0 0.86 0.72 1.56 1.58 1.56 l0 0.16 l-0.76 0 c-1.3 0 -2.34 -1.04 -2.34 -2.34 l0 -3.48 c0 -0.88 -0.7 -1.58 -1.58 -1.58 l-0.3 0 l0 6.58 c0 0.36 0.3 0.66 0.66 0.66 l0.36 0 c0.04 0 0.08 0.04 0.08 0.08 s-0.04 0.08 -0.08 0.08 l-3.58 0 c-0.04 0 -0.08 -0.04 -0.08 -0.08 s0.04 -0.08 0.08 -0.08 l0.36 0 c0.36 0 0.66 -0.3 0.66 -0.66 l0 -13.3 c0 -0.38 -0.3 -0.68 -0.66 -0.68 l-0.36 0 c-0.04 0 -0.08 -0.04 -0.08 -0.08 s0.04 -0.08 0.08 -0.08 l3.64 0 c1.28 0 2.32 1.06 2.32 2.34 l0 2.88 c0 1.08 -0.72 2 -1.72 2.26 c1 0.26 1.72 1.18 1.72 2.26 l0 3.5 z M8.84 12.440000000000001 l0.3 0 c0.88 0 1.58 -0.7 1.58 -1.56 l0 -4.1 c0 -0.88 -0.7 -1.58 -1.58 -1.58 l-0.3 0 l0 7.24 z"></path></g></svg>